PathFileType	4	(X/Y/Z)	RBDS017static.trc
DataRate	CameraRate	NumFrames	NumMarkers	Units	OrigDataRate	OrigDataStartFrame	OrigNumFrames
150.000000	150.000000	4	48	mm	150.000000	37	150
Frame#	Time	L.Ankle			L.Ankle.Medial			L.ASIS			L.GTR			L.Heel.Bottom			L.Heel.Lateral			L.Heel.Top			L.HF			L.Iliac.Crest			L.Knee			L.Knee.Medial			L.MT1			L.MT2			L.MT5			L.PSIS			L.Shank.Bottom.Lateral			L.Shank.Bottom.Medial			L.Shank.Top.Lateral			L.Shank.Top.Medial			L.Thigh.Bottom.Lateral			L.Thigh.Bottom.Medial			L.Thigh.Top.Lateral			L.Thigh.Top.Medial			L.TT			R.Ankle			R.Ankle.Medial			R.ASIS			R.GTR			R.Heel.Bottom			R.Heel.Lateral			R.Heel.Top			R.HF			R.Iliac.Crest			R.Knee			R.Knee.Medial			R.MT1			R.MT2			R.MT5			R.PSIS			R.Shank.Bottom.Lateral			R.Shank.Bottom.Medial			R.Shank.Top.Lateral			R.Shank.Top.Medial			R.Thigh.Bottom.Lateral			R.Thigh.Bottom.Medial			R.Thigh.Top.Lateral			R.Thigh.Top.Medial			R.TT			
		X1	Y1	Z1	X2	Y2	Z2	X3	Y3	Z3	X4	Y4	Z4	X5	Y5	Z5	X6	Y6	Z6	X7	Y7	Z7	X8	Y8	Z8	X9	Y9	Z9	X10	Y10	Z10	X11	Y11	Z11	X12	Y12	Z12	X13	Y13	Z13	X14	Y14	Z14	X15	Y15	Z15	X16	Y16	Z16	X17	Y17	Z17	X18	Y18	Z18	X19	Y19	Z19	X20	Y20	Z20	X21	Y21	Z21	X22	Y22	Z22	X23	Y23	Z23	X24	Y24	Z24	X25	Y25	Z25	X26	Y26	Z26	X27	Y27	Z27	X28	Y28	Z28	X29	Y29	Z29	X30	Y30	Z30	X31	Y31	Z31	X32	Y32	Z32	X33	Y33	Z33	X34	Y34	Z34	X35	Y35	Z35	X36	Y36	Z36	X37	Y37	Z37	X38	Y38	Z38	X39	Y39	Z39	X40	Y40	Z40	X41	Y41	Z41	X42	Y42	Z42	X43	Y43	Z43	X44	Y44	Z44	X45	Y45	Z45	X46	Y46	Z46	X47	Y47	Z47	X48	Y48	Z48	

38	0.2466666666666667	707.3069458007813	114.0636520385742	1037.873779296875	734.6026611328125	125.0370712280273	1120.6298828125	861.0948486328125	1078.533325195313	1089.158935546875	783.0056762695313	992.3346557617188	1039.05322265625	643.1921997070313	41.22136306762695	1078.242553710938	664.8836059570313	61.25278091430664	1042.469848632813	650.0398559570313	87.43198394775391	1080.355834960938	773.2183227539063	511.4839477539063	1048.214965820313	786.9306030273438	1169.944702148438	1051.512939453125	776.0784301757813	566.1654663085938	1055.356689453125	768.6956176757813	551.8267211914063	1175.384399414063	865.0629272460938	63.70038986206055	1123.926879882813	869.3195190429688	68.16115570068359	1074.85400390625	834.9567260742188	50.33571624755859	1013.904541015625	681.6426391601563	1137.555053710938	1175.724731445313	718.53369140625	209.2440185546875	1036.19189453125	676.1226806640625	210.7321319580078	1071.294189453125	716.5685424804688	289.6794128417969	1030.81201171875	675.1297607421875	291.5868225097656	1065.184936523438	787.422607421875	694.9705810546875	1035.680053710938	721.7098388671875	686.52685546875	1065.452270507813	767.1392211914063	803.7803344726563	1032.260498046875	708.4298706054688	796.222900390625	1066.16650390625	827.0281372070313	482.2349243164063	1090.143188476563	710.630859375	109.9317398071289	1414.123779296875	732.3473510742188	122.5626602172852	1330.08203125	850.8102416992188	1074.111694335938	1374.1142578125	775.60302734375	986.65087890625	1417.139038085938	641.3626098632813	43.54130935668945	1370.189697265625	666.8768310546875	65.20524597167969	1409.680297851563	651.625732421875	90.31592559814453	1370.509887695313	767.822265625	507.4640197753906	1399.90087890625	788.84912109375	1159.82958984375	1410.77734375	773.2936401367188	563.6043090820313	1392.414672851563	778.23828125	548.2449951171875	1272.27587890625	863.025634765625	65.39624786376953	1329.107666015625	872.5760498046875	70.01416015625	1371.639282226563	830.9277954101563	51.40225219726563	1442.267333984375	680.2684936523438	1135.093872070313	1277.695434570313	712.8445434570313	208.4524230957031	1414.166625976563	675.5438232421875	212.8217010498047	1379.222900390625	715.2244873046875	293.2369689941406	1420.429809570313	674.4177856445313	293.5057678222656	1385.700073242188	770.07470703125	689.3811645507813	1409.101928710938	708.2426147460938	682.553466796875	1369.14404296875	750.5350341796875	797.7589721679688	1413.256591796875	695.379638671875	791.5283813476563	1371.288696289063	825.9069213867188	479.6034545898438	1358.12109375	
39	0.2533333333333334	707.298095703125	114.0676498413086	1037.860473632813	734.6036987304688	125.027473449707	1120.62646484375	861.0770874023438	1078.533081054688	1089.174926757813	782.9917602539063	992.3328247070313	1039.062866210938	643.1979370117188	41.21868896484375	1078.234375	664.886474609375	61.23822402954102	1042.474853515625	650.0457763671875	87.42375946044922	1080.355346679688	773.19921875	511.4853820800781	1048.215698242188	786.9014282226563	1169.941162109375	1051.523803710938	776.0607299804688	566.1615600585938	1055.36962890625	768.6790161132813	551.8267211914063	1175.39501953125	865.0552368164063	63.69801330566406	1123.924682617188	869.3193969726563	68.16907501220703	1074.845336914063	834.9480590820313	50.3309440612793	1013.902404785156	681.6220092773438	1137.5576171875	1175.735473632813	718.5208129882813	209.2427673339844	1036.192626953125	676.1223754882813	210.7269592285156	1071.29150390625	716.5645141601563	289.6796569824219	1030.820922851563	675.1163940429688	291.5805969238281	1065.196655273438	787.4234008789063	694.9658203125	1035.687133789063	721.6911010742188	686.5269165039063	1065.4580078125	767.1256103515625	803.7844848632813	1032.264892578125	708.4166870117188	796.22119140625	1066.173095703125	827.0185546875	482.2352905273438	1090.13720703125	710.6065673828125	109.8023910522461	1413.765747070313	732.358642578125	122.5615844726563	1330.094848632813	850.7881469726563	1074.1201171875	1374.120361328125	775.5874633789063	986.6414184570313	1417.150024414063	641.3704223632813	43.53733825683594	1370.190551757813	666.8751220703125	65.19892120361328	1409.670654296875	651.6196899414063	90.31240844726563	1370.508911132813	767.8140258789063	507.4694519042969	1399.911987304688	788.83154296875	1159.831665039063	1410.783325195313	773.29638671875	563.6056518554688	1392.425170898438	778.2340087890625	548.26806640625	1272.278930664063	863.025146484375	65.39130401611328	1329.108154296875	872.5823364257813	70.01106262207031	1371.653930664063	830.9228515625	51.39854431152344	1442.277099609375	680.2406616210938	1135.082885742188	1277.70751953125	712.840576171875	208.4533386230469	1414.170288085938	675.551513671875	212.8178558349609	1379.233154296875	715.2266845703125	293.2354736328125	1420.431274414063	674.4224853515625	293.5053100585938	1385.706298828125	770.0779418945313	689.380859375	1409.111938476563	708.2366943359375	682.5455932617188	1369.153686523438	750.5289916992188	797.7506713867188	1413.272583007813	695.3720092773438	791.5275268554688	1371.297485351563	825.9033813476563	479.6047668457031	1358.13623046875	
40	0.26	707.297119140625	114.0687942504883	1037.845703125	734.6036376953125	125.0225219726563	1120.625244140625	861.052001953125	1078.531982421875	1089.186157226563	782.9888305664063	992.3265991210938	1039.0712890625	643.2024536132813	41.21720123291016	1078.236450195313	664.8929443359375	61.23361206054688	1042.466064453125	650.0433349609375	87.42406463623047	1080.352172851563	773.1868286132813	511.4808349609375	1048.224487304688	786.87548828125	1169.947509765625	1051.53515625	776.0485229492188	566.1607055664063	1055.3544921875	768.6670532226563	551.8197021484375	1175.39404296875	865.0568237304688	63.69596481323242	1123.926147460938	869.3209228515625	68.17083740234375	1074.848388671875	834.95263671875	50.33402252197266	1013.898803710938	681.6019897460938	1137.546997070313	1175.742431640625	718.5180053710938	209.2392730712891	1036.187622070313	676.1095581054688	210.7197570800781	1071.3056640625	716.554443359375	289.6713256835938	1030.824829101563	675.1055908203125	291.5754699707031	1065.199096679688	787.4149169921875	694.9647216796875	1035.691650390625	721.6856079101563	686.5149536132813	1065.45849609375	767.1209106445313	803.7810668945313	1032.2705078125	708.403564453125	796.2178344726563	1066.168823242188	826.9950561523438	482.2328491210938	1090.146240234375	710.626708984375	109.9334259033203	1414.124145507813	732.3622436523438	122.5618743896484	1330.090698242188	850.7718505859375	1074.121948242188	1374.120727539063	775.5654296875	986.6407470703125	1417.162719726563	641.3671875	43.53696441650391	1370.184692382813	666.8742065429688	65.20278930664063	1409.667602539063	651.6270751953125	90.31173706054688	1370.50341796875	767.8242797851563	507.46826171875	1399.927368164063	788.8062133789063	1159.84521484375	1410.797729492188	773.3065795898438	563.6152954101563	1392.431518554688	778.2352905273438	548.25390625	1272.282348632813	863.026123046875	65.39117431640625	1329.114868164063	872.5748901367188	69.98332977294922	1371.646118164063	830.9239501953125	51.38969039916992	1442.270263671875	680.2176513671875	1135.083251953125	1277.712158203125	712.8359985351563	208.4505615234375	1414.165161132813	675.5471801757813	212.8147735595703	1379.229370117188	715.2213745117188	293.2376708984375	1420.440307617188	674.418701171875	293.5080261230469	1385.703247070313	770.0804443359375	689.3765258789063	1409.129272460938	708.23388671875	682.5447998046875	1369.177856445313	750.5307006835938	797.7474365234375	1413.2841796875	695.35986328125	791.5198974609375	1371.310668945313	825.902099609375	479.6038513183594	1358.147094726563	
41	0.2666666666666667	707.2963256835938	114.0575103759766	1037.864135742188	734.5938720703125	125.0213165283203	1120.623168945313	861.0194091796875	1078.536865234375	1089.201049804688	782.9673461914063	992.3314819335938	1039.07275390625	643.2005615234375	41.2119026184082	1078.240356445313	664.8779907226563	61.22218322753906	1042.466918945313	650.0420532226563	87.41908264160156	1080.35693359375	773.1700439453125	511.4782104492188	1048.227783203125	786.8562622070313	1169.943603515625	1051.546020507813	776.0267333984375	566.15625	1055.376220703125	768.6433715820313	551.8276977539063	1175.408081054688	865.0526733398438	63.69844436645508	1123.928100585938	869.3189086914063	68.16658020019531	1074.846557617188	834.9542236328125	50.33678436279297	1013.904052734375	681.56982421875	1137.54541015625	1175.748901367188	718.5155029296875	209.2344055175781	1036.191772460938	676.1104736328125	210.7183532714844	1071.308837890625	716.5426025390625	289.6691589355469	1030.828002929688	675.0957641601563	291.5709228515625	1065.202880859375	787.4080810546875	694.9658203125	1035.705810546875	721.6689453125	686.5137329101563	1065.445922851563	767.1083984375	803.782958984375	1032.270263671875	708.3861694335938	796.2159423828125	1066.164306640625	826.9757080078125	482.2432861328125	1090.152954101563	710.6294555664063	109.9265975952148	1414.12939453125	732.3502807617188	122.5615692138672	1330.098510742188	850.7476806640625	1074.13037109375	1374.133544921875	775.5475463867188	986.5995483398438	1417.227905273438	641.3661499023438	43.53911209106445	1370.1943359375	666.8785400390625	65.194580078125	1409.680908203125	651.6231689453125	90.30812072753906	1370.511108398438	767.8187255859375	507.4694519042969	1399.935668945313	788.7754516601563	1159.84765625	1410.798950195313	773.3026733398438	563.6112060546875	1392.426879882813	778.2455444335938	548.2654418945313	1272.295043945313	863.02392578125	65.39208984375	1329.110229492188	872.5819702148438	69.98100280761719	1371.645141601563	830.9226684570313	51.39620208740234	1442.270751953125	680.1875610351563	1135.077514648438	1277.72509765625	712.8399047851563	208.4537963867188	1414.174560546875	675.5531616210938	212.8129425048828	1379.233276367188	715.223388671875	293.2370300292969	1420.444458007813	674.4236450195313	293.5116882324219	1385.705810546875	770.08349609375	689.3760375976563	1409.141967773438	708.2473754882813	682.5436401367188	1369.194091796875	750.52099609375	797.7462768554688	1413.304321289063	695.3671264648438	791.5137939453125	1371.325805664063	825.9060668945313	479.6025085449219	1358.153564453125	
